<svg width="1440" height="269" viewBox="0 0 1440 269" fill="none" xmlns="http://www.w3.org/2000/svg">
<path d="M1460.89 118.647C1454.44 111.938 1442.35 110.417 1430.16 110.238C1417.98 110.417 1405.89 111.938 1399.44 118.647C1392.72 125.088 1391.19 137.166 1391.02 149.332C1391.19 161.499 1392.72 173.577 1399.44 180.018C1405.89 186.727 1417.98 188.248 1430.16 188.427C1442.35 188.248 1454.44 186.727 1460.89 180.018C1467.61 173.577 1469.13 161.499 1469.31 149.332C1469.13 137.166 1467.61 124.999 1460.89 118.647Z" fill="#FFCFBE"/>
<path opacity="0.2" d="M1350.65 225.594C1344.2 218.884 1332.11 217.363 1319.93 217.185C1307.74 217.363 1295.65 218.884 1289.2 225.594C1282.48 232.035 1280.96 244.112 1280.78 256.279C1280.96 268.446 1282.48 280.523 1289.2 286.965C1295.65 293.674 1307.74 295.195 1319.93 295.374C1332.11 295.195 1344.2 293.674 1350.65 286.965C1357.37 280.523 1358.89 268.446 1359.07 256.279C1358.89 244.112 1357.37 231.946 1350.65 225.594Z" fill="#FFCFBE"/>
<path opacity="0.4" d="M1461.19 225.594C1454.74 218.884 1442.64 217.363 1430.46 217.185C1418.28 217.363 1406.18 218.884 1399.73 225.594C1393.01 232.035 1391.49 244.112 1391.31 256.279C1391.49 268.446 1393.01 280.523 1399.73 286.965C1406.18 293.674 1418.28 295.195 1430.46 295.374C1442.64 295.195 1454.74 293.674 1461.19 286.965C1467.91 280.523 1469.43 268.446 1469.61 256.279C1469.43 244.112 1467.91 231.946 1461.19 225.594Z" fill="#FFCFBE"/>
<path d="M1129.88 224.409C1123.43 217.7 1111.33 216.179 1099.15 216C1086.97 216.179 1074.87 217.7 1068.42 224.409C1061.7 230.851 1060.18 242.928 1060 255.095C1060.18 267.261 1061.7 279.339 1068.42 285.78C1074.87 292.49 1086.97 294.01 1099.15 294.189C1111.33 294.01 1123.43 292.49 1129.88 285.78C1136.6 279.339 1138.12 267.261 1138.3 255.095C1138.12 242.928 1136.6 230.761 1129.88 224.409Z" fill="#FFCFBE"/>
<path opacity="0.6" d="M1240.41 224.409C1233.96 217.7 1221.87 216.179 1209.68 216C1197.5 216.179 1185.41 217.7 1178.96 224.409C1172.24 230.851 1170.72 242.928 1170.54 255.095C1170.72 267.261 1172.24 279.339 1178.96 285.78C1185.41 292.49 1197.5 294.01 1209.68 294.189C1221.87 294.01 1233.96 292.49 1240.41 285.78C1247.13 279.339 1248.65 267.261 1248.83 255.095C1248.65 242.928 1247.13 230.761 1240.41 224.409Z" fill="#FFCFBE"/>
<path opacity="0.6" d="M1351.65 114.594C1345.2 107.884 1333.11 106.363 1320.93 106.185C1308.74 106.363 1296.65 107.884 1290.2 114.594C1283.48 121.035 1281.96 133.112 1281.78 145.279C1281.96 157.446 1283.48 169.523 1290.2 175.965C1296.65 182.674 1308.74 184.195 1320.93 184.374C1333.11 184.195 1345.2 182.674 1351.65 175.965C1358.37 169.523 1359.89 157.446 1360.07 145.279C1359.89 133.112 1358.37 120.946 1351.65 114.594Z" fill="#FFCFBE"/>
<path opacity="0.4" d="M1241.41 113.409C1234.96 106.7 1222.87 105.179 1210.68 105C1198.5 105.179 1186.41 106.7 1179.96 113.409C1173.24 119.851 1171.72 131.928 1171.54 144.095C1171.72 156.261 1173.24 168.339 1179.96 174.78C1186.41 181.49 1198.5 183.01 1210.68 183.189C1222.87 183.01 1234.96 181.49 1241.41 174.78C1248.13 168.339 1249.65 156.261 1249.83 144.095C1249.65 131.928 1248.13 119.761 1241.41 113.409Z" fill="#FFCFBE"/>
<path opacity="0.15" d="M1460.89 8.40938C1454.44 1.69976 1442.35 0.178923 1430.16 0C1417.98 0.178923 1405.89 1.69976 1399.44 8.40938C1392.72 14.8506 1391.19 26.9279 1391.02 39.0947C1391.19 51.2614 1392.72 63.3387 1399.44 69.78C1405.89 76.4896 1417.98 78.0104 1430.16 78.1894C1442.35 78.0104 1454.44 76.4896 1460.89 69.78C1467.61 63.3387 1469.13 51.2614 1469.31 39.0947C1469.13 26.9279 1467.61 14.7611 1460.89 8.40938Z" fill="#FFCFBE"/>
<path opacity="0.15" d="M256.877 118.961C250.426 112.252 238.332 110.731 226.149 110.552C213.965 110.731 201.871 112.252 195.421 118.961C188.702 125.402 187.179 137.48 187 149.646C187.179 161.813 188.702 173.891 195.421 180.332C201.871 187.041 213.965 188.562 226.149 188.741C238.332 188.562 250.426 187.041 256.877 180.332C263.595 173.891 265.118 161.813 265.298 149.646C265.118 137.48 263.595 125.313 256.877 118.961Z" fill="#FFCFBE"/>
<path opacity="0.4" d="M257.062 227.553C250.611 220.844 238.517 219.323 226.334 219.144C214.15 219.323 202.056 220.844 195.606 227.553C188.887 233.995 187.364 246.072 187.185 258.239C187.364 270.406 188.887 282.483 195.606 288.924C202.056 295.634 214.15 297.154 226.334 297.333C238.517 297.154 250.611 295.634 257.062 288.924C263.781 282.483 265.303 270.406 265.483 258.239C265.303 246.072 263.781 233.905 257.062 227.553Z" fill="#FFCFBE"/>
<path opacity="0.4" d="M148.469 225.908C142.019 219.198 129.925 217.677 117.741 217.499C105.558 217.677 93.4637 219.198 87.0135 225.908C80.2946 232.349 78.7717 244.426 78.5925 256.593C78.7717 268.76 80.2946 280.837 87.0135 287.279C93.4637 293.988 105.558 295.509 117.741 295.688C129.925 295.509 142.019 293.988 148.469 287.279C155.188 280.837 156.711 268.76 156.89 256.593C156.711 244.426 155.188 232.26 148.469 225.908Z" fill="#FFCFBE"/>
<path opacity="0.15" d="M39.8766 225.908C33.4264 219.198 21.3323 217.677 9.14875 217.499C-3.03486 217.677 -15.1289 219.198 -21.579 225.908C-28.2979 232.349 -29.8208 244.426 -30 256.593C-29.8208 268.76 -28.2979 280.837 -21.579 287.279C-15.1289 293.988 -3.03486 295.509 9.14875 295.688C21.3323 295.509 33.4264 293.988 39.8766 287.279C46.5955 280.837 48.1184 268.76 48.2975 256.593C48.1184 244.426 46.5955 232.26 39.8766 225.908Z" fill="#FFCFBE"/>
<path d="M39.8766 118.961C33.4264 112.252 21.3324 110.731 9.1488 110.552C-3.03481 110.731 -15.1289 112.252 -21.579 118.961C-28.2979 125.402 -29.8208 137.48 -30 149.646C-29.8208 161.813 -28.2979 173.891 -21.579 180.332C-15.1289 187.041 -3.03481 188.562 9.1488 188.741C21.3324 188.562 33.4264 187.041 39.8766 180.332C46.5955 173.891 48.1184 161.813 48.2975 149.646C48.1184 137.48 46.5955 125.313 39.8766 118.961Z" fill="#FFCFBE"/>
<path opacity="0.8" d="M365.653 225.908C359.203 219.198 347.109 217.677 334.925 217.499C322.742 217.677 310.647 219.198 304.197 225.908C297.478 232.349 295.956 244.426 295.776 256.593C295.956 268.76 297.478 280.837 304.197 287.279C310.647 293.988 322.742 295.509 334.925 295.688C347.109 295.509 359.203 293.988 365.653 287.279C372.372 280.837 373.895 268.76 374.074 256.593C373.895 244.426 372.372 232.26 365.653 225.908Z" fill="#FFCFBE"/>
<path opacity="0.15" d="M585.256 226.261C578.806 219.551 566.712 218.03 554.529 217.852C542.345 218.03 530.251 219.551 523.801 226.261C517.082 232.702 515.559 244.779 515.38 256.946C515.559 269.113 517.082 281.19 523.801 287.632C530.251 294.341 542.345 295.862 554.529 296.041C566.712 295.862 578.806 294.341 585.256 287.632C591.975 281.19 593.498 269.113 593.677 256.946C593.498 244.779 591.975 232.613 585.256 226.261Z" fill="#FFCFBE"/>
</svg>
